<svg width="44" height="24" viewBox="0 0 44 24" fill="none" xmlns="http://www.w3.org/2000/svg">
<rect width="44" height="24" rx="12" fill="#222222" fill-opacity="0.5"/>
<path d="M11.5179 16.77H14.0379V9.045L11.5329 10.86V9.315L14.0379 7.5H15.4479V16.77H17.5179V18H11.5179V16.77ZM23.755 6.75H25.105L20.245 20.25H18.895L23.755 6.75ZM29.575 18.105C29.075 18.105 28.62 18.03 28.21 17.88C27.81 17.73 27.465 17.525 27.175 17.265C26.895 16.995 26.675 16.685 26.515 16.335C26.365 15.985 26.29 15.605 26.29 15.195H27.685C27.685 15.675 27.85 16.075 28.18 16.395C28.52 16.715 28.985 16.875 29.575 16.875C30.165 16.875 30.625 16.715 30.955 16.395C31.295 16.065 31.465 15.655 31.465 15.165C31.465 14.555 31.285 14.08 30.925 13.74C30.565 13.39 30.015 13.215 29.275 13.215H28.48V11.985H29.275C29.975 11.985 30.49 11.83 30.82 11.52C31.15 11.21 31.315 10.76 31.315 10.17C31.315 9.72 31.16 9.35 30.85 9.06C30.55 8.77 30.125 8.625 29.575 8.625C29.025 8.625 28.595 8.77 28.285 9.06C27.985 9.34 27.835 9.7 27.835 10.14H26.44C26.44 9.76 26.51 9.405 26.65 9.075C26.8 8.735 27.01 8.445 27.28 8.205C27.55 7.955 27.88 7.76 28.27 7.62C28.66 7.47 29.095 7.395 29.575 7.395C30.055 7.395 30.485 7.47 30.865 7.62C31.255 7.76 31.585 7.955 31.855 8.205C32.135 8.455 32.345 8.75 32.485 9.09C32.635 9.42 32.71 9.78 32.71 10.17C32.71 10.77 32.55 11.275 32.23 11.685C31.91 12.095 31.525 12.385 31.075 12.555C31.625 12.715 32.06 13.025 32.38 13.485C32.7 13.945 32.86 14.51 32.86 15.18C32.86 15.59 32.78 15.975 32.62 16.335C32.47 16.685 32.25 16.995 31.96 17.265C31.68 17.525 31.335 17.73 30.925 17.88C30.525 18.03 30.075 18.105 29.575 18.105Z" fill="white"/>
</svg>
